<?xml version="1.0" encoding="UTF-8" standalone="no"?>
<svg
   xmlns:dc="http://purl.org/dc/elements/1.1/"
   xmlns:cc="http://creativecommons.org/ns#"
   xmlns:rdf="http://www.w3.org/1999/02/22-rdf-syntax-ns#"
   xmlns:svg="http://www.w3.org/2000/svg"
   xmlns="http://www.w3.org/2000/svg"
   id="svg8"
   version="1.1"
   viewBox="0 0 24.999996 3.5000018"
   height="3.5mm"
   width="25mm">
  <defs
     id="defs2" />
  <metadata
     id="metadata5">
    <rdf:RDF>
      <cc:Work
         rdf:about="">
        <dc:format>image/svg+xml</dc:format>
        <dc:type
           rdf:resource="http://purl.org/dc/dcmitype/StillImage" />
        <dc:title></dc:title>
      </cc:Work>
    </rdf:RDF>
  </metadata>
  <g
     transform="translate(0,-293.49995)"
     id="layer7">
    <path
       id="text817-6-5-5-2-1-7-6-3-2"
       d="m 13.936931,293.64899 c -0.117672,0 -0.226661,0.0199 -0.324857,0.0616 h -9e-4 c -0.09368,0.0409 -0.17629,0.0973 -0.244744,0.16816 -0.06659,0.0691 -0.11796,0.15174 -0.154064,0.24561 l -9.01e-4,9.1e-4 v 9e-4 c -0.03361,0.0936 -0.05018,0.19278 -0.05018,0.29492 v 0.0185 H 12.93767 v 0.50093 h 0.223615 v 1.27653 h 0.604813 v -1.27653 h 0.305489 v 1.27653 h 0.604814 v -1.77746 h -0.910303 v -0.0343 c 0,-0.063 0.01652,-0.11207 0.05018,-0.15758 0.02998,-0.0381 0.07025,-0.0581 0.149662,-0.0581 0.06664,0 0.131908,0.0123 0.198084,0.0388 0.06735,0.0269 0.124235,0.062 0.172552,0.10477 l 0.08188,0.0722 0.258829,-0.48861 -0.06515,-0.0431 c -0.09541,-0.0636 -0.197713,-0.11574 -0.306369,-0.1567 -0.112641,-0.0455 -0.236278,-0.0678 -0.368875,-0.0678 z m -1.707918,0.0325 v 0.60129 h 0.08539 0.519418 v -0.60129 z m -1.149763,0.11621 v 0.55023 h -0.222734 v 0.50534 h 0.222734 v 0.88917 c 0,0.0845 0.01345,0.16143 0.04314,0.22889 v 9.1e-4 h 9.02e-4 c 0.02812,0.0613 0.06616,0.11554 0.114448,0.15846 l 0.0018,0.002 0.0027,9e-4 c 0.0497,0.0392 0.106373,0.0683 0.168151,0.0863 v 9e-4 h 9.01e-4 c 0.06198,0.0174 0.126965,0.0255 0.194562,0.0255 0.100818,0 0.197854,-0.0138 0.290522,-0.0423 0.08658,-0.0266 0.16101,-0.054 0.223615,-0.0819 l 0.06603,-0.029 -0.01761,-0.0704 -0.111808,-0.4393 -0.09156,0.0378 c -0.02342,0.01 -0.05726,0.023 -0.09948,0.0378 -0.03437,0.012 -0.06805,0.0176 -0.103885,0.0176 -0.02831,0 -0.04553,-0.006 -0.06162,-0.0176 -0.0054,-0.006 -0.01496,-0.0174 -0.01496,-0.0616 v -0.74392 h 0.35655 v -0.50533 h -0.35655 v -0.55023 z m 2.857681,0.022 c 0.113565,0 0.214273,0.019 0.304608,0.0555 l 9.02e-4,9.1e-4 h 9.01e-4 c 0.07316,0.0275 0.139027,0.066 0.205126,0.10476 l -0.08892,0.16903 c -0.04299,-0.028 -0.08233,-0.0602 -0.132055,-0.0801 -0.08498,-0.034 -0.172633,-0.052 -0.26147,-0.052 -0.114932,0 -0.219329,0.0405 -0.284361,0.12326 l -9e-4,9e-4 -9.02e-4,9e-4 c -0.05621,0.0749 -0.08451,0.16626 -0.08451,0.26235 v 0.20513 h 0.910303 v 1.435 h -0.26323 v -1.27565 H 13.59535 v 1.27565 h -0.26323 v -1.27565 h -0.08539 -0.138218 v -0.15935 h 0.223614 v -0.18928 c 0,-0.0832 0.01384,-0.16139 0.04049,-0.23594 9.7e-5,-2.8e-4 -9.7e-5,-4.5e-4 0,-9e-4 0.02861,-0.0737 0.06752,-0.13524 0.117089,-0.18664 0.05247,-0.0543 0.114536,-0.0968 0.18928,-0.12941 0.07455,-0.0317 0.159689,-0.0485 0.257948,-0.0485 z m -1.537126,0.0326 h 0.263231 v 0.25971 h -0.263231 z m -1.148883,0.11709 h 0.262351 v 0.55023 h 0.356549 v 0.16199 h -0.356549 v 0.91558 c 0,0.0747 0.02049,0.14723 0.07571,0.19457 l 0.0027,0.002 0.0027,0.002 c 0.04776,0.0351 0.106972,0.052 0.16727,0.052 0.05486,0 0.109101,-0.009 0.161108,-0.0273 0.0065,-0.002 0.0097,-0.004 0.01585,-0.006 l 0.04402,0.17607 c -0.04239,0.0164 -0.08175,0.0334 -0.136458,0.0502 -0.07576,0.0233 -0.155457,0.0343 -0.240341,0.0343 -0.05333,0 -0.102794,-0.006 -0.148782,-0.0193 -0.03962,-0.0118 -0.07378,-0.0291 -0.104765,-0.0528 l -9.01e-4,-9e-4 c -0.02906,-0.0261 -0.05299,-0.0584 -0.0722,-0.10036 -0.01748,-0.0403 -0.02817,-0.0926 -0.02817,-0.15847 v -1.06084 h -0.223613 v -0.16199 h 0.223613 z m -9.9772332,0.34951 c -0.152653,0 -0.29283521,0.0334 -0.416415,0.10124 -0.0543427,0.0293 -0.0849069,0.0863 -0.1294144,0.12765 v -0.19984 H 0.16442262 v 1.86903 h 0.60569453 v -1.05733 c 0.0284546,-0.0892 0.0709432,-0.15803 0.13205556,-0.2104 0.0656085,-0.0544 0.12561619,-0.0766 0.18751879,-0.0766 0.060267,0 0.090537,0.0162 0.1214911,0.059 h 8.789e-4 v 9.1e-4 c 0.029457,0.0388 0.053703,0.12044 0.053703,0.2465 v 1.03796 h 0.6056944 v -1.05381 c 0.028455,-0.0892 0.070943,-0.15802 0.1320556,-0.2104 v -9e-4 h 8.789e-4 c 0.063454,-0.0562 0.1223901,-0.0793 0.1866385,-0.0793 0.060267,0 0.090537,0.0163 0.1214911,0.059 l 8.789e-4,9e-4 c 0.029457,0.0388 0.053703,0.12044 0.053703,0.24651 v 1.03795 h 0.6056989 v -0.0854 -1.05909 c 0,-0.0873 -0.00854,-0.17367 -0.02465,-0.25883 -0.014533,-0.0882 -0.042317,-0.16923 -0.084516,-0.24122 -0.044285,-0.0756 -0.1083069,-0.13763 -0.1866384,-0.18312 -0.083538,-0.0485 -0.184093,-0.0704 -0.2984455,-0.0704 -0.1484944,0 -0.285704,0.0355 -0.4049702,0.10564 -3.565e-4,2.1e-4 -5.229e-4,4.5e-4 -8.79e-4,9e-4 -0.082621,0.0474 -0.1414749,0.12854 -0.2033655,0.20513 -0.031668,-0.065 -0.052708,-0.13635 -0.1082855,-0.18576 -0.097159,-0.0864 -0.2310066,-0.12589 -0.3873627,-0.12589 z m 2.6780857,0 c -0.2689879,0 -0.5228112,0.0784 -0.7535968,0.23153 l -0.062507,0.0413 0.2086477,0.43315 0.082755,-0.0573 c 0.085912,-0.0593 0.1678936,-0.10346 0.2465036,-0.13293 0.077145,-0.029 0.1554434,-0.0431 0.2359392,-0.0431 0.1114588,0 0.1797575,0.0263 0.2218532,0.0669 h 8.79e-4 l 8.789e-4,9e-4 c 0.041557,0.0389 0.059574,0.0977 0.063387,0.1796 -0.029619,-0.007 -0.054977,-0.0198 -0.087157,-0.0255 h -8.79e-4 c -0.076232,-0.0138 -0.1548868,-0.0203 -0.2350588,-0.0203 -0.1133802,0 -0.2190313,0.0147 -0.3169332,0.0458 -0.095856,0.0283 -0.1820219,0.0686 -0.2553072,0.12236 v 9e-4 h -8.79e-4 c -0.07213,0.0548 -0.1301931,0.12364 -0.1725526,0.20337 l -8.789e-4,9.1e-4 c -0.040918,0.0793 -0.060746,0.16746 -0.060746,0.2597 0,0.0881 0.01538,0.17114 0.048421,0.24739 l 8.789e-4,9e-4 8.79e-4,0.002 c 0.034614,0.0742 0.081612,0.14043 0.1408592,0.19721 h 8.789e-4 l 8.79e-4,9e-4 c 0.060043,0.055 0.1312903,0.0988 0.2112888,0.1303 h 8.79e-4 l 8.79e-4,8.9e-4 c 0.08118,0.0295 0.1677597,0.044 0.2588287,0.044 0.135101,0 0.2644297,-0.0289 0.3838414,-0.0863 0.073241,-0.0351 0.1267394,-0.0993 0.1866384,-0.15407 0.018737,0.0579 0.041199,0.11588 0.087157,0.15495 l 8.789e-4,8.9e-4 h 8.79e-4 c 0.064981,0.0526 0.1499178,0.0748 0.2447428,0.0748 0.061977,0 0.1311704,-0.008 0.2086479,-0.0247 l 0.067788,-0.0141 V 295.681 l -0.080113,-0.005 c -0.018815,-8.9e-4 -0.018706,-0.003 -0.01849,-0.003 0.00243,0.003 -0.00442,-0.008 -0.00442,-0.0413 v -0.52823 c 0,-0.24386 -0.077802,-0.44628 -0.2341789,-0.5828 -0.1529838,-0.13743 -0.3650366,-0.20249 -0.6224213,-0.20249 z m 1.8663844,0 c -0.1277049,0 -0.2483648,0.0257 -0.3574303,0.0766 -0.1075863,0.0502 -0.2004691,0.12068 -0.2773164,0.20953 -0.076137,0.0881 -0.135709,0.18993 -0.1778347,0.30461 -0.042574,0.11589 -0.063387,0.24117 -0.063387,0.37327 0,0.12559 0.019783,0.24514 0.059865,0.35831 0.039864,0.11256 0.096213,0.214 0.1699114,0.30197 l 9.015e-4,9e-4 9.016e-4,9e-4 c 0.076259,0.0858 0.1667299,0.15499 0.2693935,0.20513 0.1053181,0.0514 0.2228713,0.0766 0.3486263,0.0766 0.1292912,0 0.2529146,-0.0293 0.3662339,-0.0871 h 9.016e-4 v -9e-4 c 0.046907,-0.025 0.071965,-0.0728 0.1109266,-0.10653 v 0.0185 c 0,0.0723 -0.012495,0.12992 -0.034333,0.17696 v 0.002 l -9.016e-4,9e-4 c -0.021063,0.0492 -0.048829,0.0863 -0.085396,0.11621 -0.038044,0.0312 -0.081717,0.0543 -0.1338162,0.0687 h -0.00176 l -0.00176,9e-4 c -0.051695,0.0166 -0.1059784,0.0247 -0.1646295,0.0247 -0.098073,0 -0.1899922,-0.0197 -0.2781967,-0.0598 h -9.015e-4 c -0.086001,-0.0402 -0.1557375,-0.0942 -0.2121691,-0.16375 l -0.058985,-0.0731 -0.359191,0.34951 0.049301,0.0608 c 0.097929,0.12125 0.2157661,0.21665 0.352148,0.28261 0.1421836,0.0699 0.3126457,0.10212 0.5079735,0.10212 0.1437404,0 0.2776076,-0.0192 0.4014487,-0.059 0.1255324,-0.0395 0.235105,-0.0974 0.3266176,-0.17431 0.093665,-0.0768 0.1674236,-0.17159 0.2200924,-0.28171 0.053549,-0.11198 0.080113,-0.23721 0.080113,-0.37328 v -1.70264 H 6.325252 v 0.18664 c -0.040139,-0.036 -0.069288,-0.0842 -0.1162086,-0.1118 -0.1136907,-0.0692 -0.2460622,-0.10389 -0.3908845,-0.10389 z m 2.4315819,0 c -0.1605772,0 -0.3093989,0.0333 -0.441065,0.10036 -0.063114,0.0322 -0.097063,0.092 -0.147022,0.13733 v -0.20864 H 7.098217 v 1.86903 h 0.6056947 v -1.05997 c 0.01231,-0.0391 0.028956,-0.0753 0.053702,-0.10828 0.02828,-0.0377 0.058311,-0.0682 0.090678,-0.0933 l 9.015e-4,-9.1e-4 c 0.034794,-0.0275 0.06979,-0.0476 0.1065252,-0.0616 0.036894,-0.014 0.071236,-0.0202 0.1030031,-0.0202 0.062986,0 0.096637,0.0166 0.1294142,0.0598 0.029456,0.0388 0.053703,0.12043 0.053703,0.2465 v 1.03796 h 0.6048141 v -0.0854 -1.05908 c 0,-0.0867 -0.00787,-0.17247 -0.023768,-0.25706 -0.014437,-0.089 -0.041992,-0.17045 -0.084516,-0.24299 -0.044287,-0.0756 -0.108307,-0.13764 -0.1866387,-0.18311 -0.083884,-0.0487 -0.1856736,-0.0704 -0.301967,-0.0704 z m 1.6788654,0 c -0.1480091,0 -0.284595,0.0259 -0.4084917,0.0783 h -9.009e-4 c -0.1196321,0.0516 -0.2231585,0.12346 -0.3090104,0.21393 -0.085643,0.088 -0.1514162,0.19218 -0.1963224,0.3099 -0.045004,0.11605 -0.067784,0.2409 -0.067784,0.37151 0,0.12665 0.022928,0.24878 0.067784,0.36447 v 9e-4 c 0.047131,0.11547 0.1144593,0.21862 0.1998444,0.30637 0.085911,0.0883 0.1895798,0.15801 0.3090094,0.20953 l 9.018e-4,9e-4 c 0.1216058,0.05 0.2567758,0.0748 0.4023283,0.0748 0.2023483,0 0.3823663,-0.0444 0.5335043,-0.13558 0.149954,-0.0914 0.263462,-0.21131 0.333661,-0.35654 l 0.0449,-0.0924 -0.544949,-0.15142 -0.02905,0.0704 c -0.01989,0.0489 -0.05598,0.0894 -0.11973,0.12501 -0.06356,0.0345 -0.129673,0.052 -0.202485,0.052 -0.046262,0 -0.08975,-0.008 -0.132056,-0.0238 -0.042183,-0.0158 -0.07854,-0.038 -0.1118068,-0.0678 -0.032777,-0.0293 -0.059552,-0.0645 -0.080991,-0.1074 -0.00758,-0.0153 -0.00929,-0.0372 -0.014964,-0.0546 h 1.2686128 l 0.01585,-0.0651 c 0.0068,-0.027 0.0088,-0.0547 0.0088,-0.0854 0.0019,-0.0264 0.0035,-0.0532 0.0035,-0.081 0,-0.12409 -0.02254,-0.24418 -0.06691,-0.3592 -0.04269,-0.11622 -0.107288,-0.22 -0.192802,-0.30813 -0.08375,-0.0885 -0.187252,-0.15885 -0.306368,-0.2104 -0.120295,-0.0529 -0.25608,-0.0793 -0.40409,-0.0793 z m 5.8421358,0 c -0.14801,0 -0.283762,0.0257 -0.40585,0.0783 -0.11943,0.0515 -0.223975,0.12211 -0.30989,0.2104 -0.08566,0.0881 -0.151332,0.19123 -0.196324,0.30726 -0.04493,0.11587 -0.06691,0.23936 -0.06691,0.36799 0,0.12665 0.02224,0.24958 0.06691,0.36711 v 9.1e-4 l 9.02e-4,9e-4 c 0.04706,0.11527 0.113153,0.21848 0.198083,0.30813 l 9.02e-4,8.9e-4 c 0.08591,0.0883 0.18958,0.1589 0.30901,0.21041 0.122089,0.0526 0.258722,0.0783 0.406731,0.0783 0.200329,0 0.378247,-0.0442 0.527341,-0.13558 0.146278,-0.0896 0.255744,-0.20991 0.321336,-0.35567 l 0.04049,-0.0889 -0.588969,-0.17959 -0.03169,0.0678 c -0.01731,0.0375 -0.04828,0.0725 -0.103885,0.10476 h -9e-4 -9.02e-4 c -0.05182,0.0311 -0.10557,0.0466 -0.169031,0.0466 -0.04925,0 -0.09414,-0.0101 -0.137338,-0.029 -0.04209,-0.0206 -0.07905,-0.0479 -0.111807,-0.0836 l -9.02e-4,-9.1e-4 c -0.03147,-0.0369 -0.05782,-0.0815 -0.07836,-0.13557 -0.0197,-0.052 -0.02994,-0.11035 -0.02994,-0.17696 0,-0.0664 0.0088,-0.12496 0.02641,-0.17696 l 9.02e-4,-8.9e-4 c 1.72e-4,-4.6e-4 -1.74e-4,-9.3e-4 0,-0.002 0.02039,-0.0529 0.04624,-0.0957 0.07659,-0.12942 0.03348,-0.037 0.07065,-0.0639 0.113568,-0.0828 h 0.0018 l 9.01e-4,-9e-4 c 0.04233,-0.0204 0.08741,-0.0308 0.138219,-0.0308 0.05999,0 0.11097,0.0133 0.158466,0.0405 l 9.02e-4,9.1e-4 9.02e-4,8.9e-4 c 0.04657,0.025 0.08221,0.0596 0.111805,0.11005 l 0.03433,0.0581 0.586327,-0.17871 -0.04578,-0.0907 c -0.07201,-0.14402 -0.182671,-0.26131 -0.326617,-0.34862 -0.144982,-0.0892 -0.31999,-0.13294 -0.517658,-0.13294 z m 2.555714,0 c -0.14801,0 -0.283762,0.0257 -0.405851,0.0783 -0.119429,0.0515 -0.223094,0.12211 -0.30901,0.2104 -0.08566,0.0881 -0.15221,0.19123 -0.197203,0.30726 -0.04493,0.11587 -0.0669,0.23936 -0.0669,0.36799 0,0.12665 0.02224,0.24958 0.0669,0.36711 v 9.1e-4 l 9.02e-4,9e-4 c 0.04705,0.11527 0.113154,0.21848 0.198084,0.30813 l 9e-4,8.9e-4 c 0.08591,0.0883 0.189582,0.1589 0.309011,0.21041 0.122089,0.0526 0.258721,0.0783 0.40673,0.0783 0.20033,0 0.378247,-0.0442 0.527342,-0.13558 0.146278,-0.0896 0.255744,-0.20991 0.321335,-0.35567 l 0.04049,-0.0889 -0.588968,-0.17959 -0.03169,0.0678 c -0.0173,0.0375 -0.04828,0.0725 -0.103883,0.10476 h -9.02e-4 c -0.05182,0.0311 -0.10645,0.0466 -0.169911,0.0466 -0.04925,0 -0.09414,-0.0101 -0.137338,-0.029 -0.04209,-0.0206 -0.07906,-0.0479 -0.111808,-0.0836 l -9.01e-4,-9.1e-4 c -0.03147,-0.0369 -0.05782,-0.0815 -0.07836,-0.13557 -0.0197,-0.052 -0.02994,-0.11035 -0.02994,-0.17696 0,-0.0664 0.0088,-0.12496 0.02642,-0.17696 l 9.01e-4,-8.9e-4 c 1.72e-4,-4.6e-4 -1.74e-4,-9.3e-4 0,-0.002 0.0204,-0.0529 0.04711,-0.0957 0.07747,-0.12942 0.03335,-0.0367 0.06999,-0.064 0.112687,-0.0828 h 0.0018 l 9.02e-4,-9e-4 c 0.04233,-0.0204 0.08741,-0.0308 0.138218,-0.0308 0.05999,0 0.110971,0.0133 0.158467,0.0405 l 9.01e-4,9.1e-4 9.01e-4,8.9e-4 c 0.04657,0.025 0.08221,0.0596 0.111807,0.11005 l 0.03433,0.0581 0.586326,-0.17871 -0.04578,-0.0907 c -0.07201,-0.14402 -0.182671,-0.26131 -0.326617,-0.34862 -0.144983,-0.0892 -0.31999,-0.13294 -0.517658,-0.13294 z m 1.80652,0 c -0.14801,0 -0.284643,0.0257 -0.406731,0.0783 -0.119863,0.0517 -0.223944,0.12321 -0.30989,0.21393 -0.08323,0.0879 -0.147994,0.19169 -0.192802,0.30725 -0.04493,0.11588 -0.0669,0.23849 -0.0669,0.36711 0,0.12665 0.02205,0.24878 0.0669,0.36447 0.04474,0.11538 0.10915,0.21915 0.191921,0.30901 l 9.02e-4,9.1e-4 9.01e-4,9e-4 c 0.08591,0.0883 0.189581,0.15889 0.30901,0.2104 0.122089,0.0526 0.258721,0.0783 0.40673,0.0783 0.14801,0 0.284643,-0.0257 0.406732,-0.0783 0.119616,-0.0516 0.222344,-0.12246 0.306369,-0.21128 l 9.01e-4,-9.1e-4 c 0.08278,-0.0899 0.147183,-0.19363 0.191921,-0.30901 0.04486,-0.11569 0.0669,-0.23782 0.0669,-0.36447 0,-0.12862 -0.02197,-0.25123 -0.0669,-0.36711 -0.04499,-0.11604 -0.111541,-0.21921 -0.197203,-0.30725 -0.0838,-0.0906 -0.186063,-0.16241 -0.305489,-0.21393 v 9e-4 c -0.120295,-0.0529 -0.2552,-0.0793 -0.40321,-0.0793 z m 2.200925,0 c -0.152653,0 -0.293716,0.0334 -0.417296,0.10124 -0.05412,0.0293 -0.08418,0.0865 -0.128534,0.12765 v -0.19984 h -0.563436 v 1.86903 h 0.604813 v -1.05733 c 0.02846,-0.0892 0.07095,-0.15803 0.132056,-0.2104 0.06561,-0.0544 0.125616,-0.0766 0.187519,-0.0766 0.06026,0 0.09053,0.0162 0.121491,0.059 h 9.01e-4 l 9.02e-4,9.1e-4 c 0.02946,0.0388 0.0537,0.12044 0.0537,0.2465 v 1.03796 h 0.604814 v -1.05381 c 0.02846,-0.0892 0.07095,-0.15802 0.132055,-0.2104 l 9.02e-4,-9e-4 c 0.06346,-0.0562 0.122389,-0.0793 0.186638,-0.0793 0.06027,0 0.09054,0.0163 0.121491,0.059 h 9.01e-4 v 9e-4 c 0.02946,0.0388 0.05459,0.12044 0.05459,0.24651 v 1.03795 h 0.604814 v -0.0854 -1.05909 c 0,-0.0868 -0.0079,-0.17246 -0.02377,-0.25707 -0.01444,-0.089 -0.04288,-0.17044 -0.08539,-0.24298 -0.04428,-0.0756 -0.107427,-0.13763 -0.185759,-0.18312 -0.08353,-0.0485 -0.184972,-0.0704 -0.299325,-0.0704 -0.149178,0 -0.2862,0.0357 -0.405851,0.10653 -0.08275,0.0474 -0.141414,0.12838 -0.203366,0.20512 -0.03166,-0.0649 -0.05187,-0.1364 -0.107404,-0.18576 -0.09716,-0.0864 -0.231007,-0.12589 -0.387363,-0.12589 z m -10.104888,0.029 v 1.86903 h 0.08539 0.519418 v -1.86903 z m -10.9553242,0.14263 c 0.1286738,0 0.2154833,0.0301 0.2737951,0.0818 0.065117,0.0579 0.1043083,0.12463 0.1223714,0.20953 l 0.045779,0.21481 0.1118071,-0.1884 c 0.062634,-0.10569 0.1384691,-0.18238 0.2306568,-0.23506 l 8.79e-4,-9e-4 c 0.091962,-0.0544 0.1966783,-0.0819 0.3195744,-0.0819 0.092942,0 0.16271,0.0175 0.2130495,0.0466 0.055546,0.0323 0.095,0.0718 0.1241322,0.1215 0.030895,0.0527 0.052791,0.11322 0.064267,0.18399 v 9e-4 0.002 c 0.01412,0.0746 0.021129,0.15034 0.021129,0.22714 v 0.97281 H 2.5387805 v -0.86629 c 0,-0.14566 -0.02372,-0.26227 -0.088917,-0.34862 -0.059777,-0.0821 -0.1552713,-0.12853 -0.2588288,-0.12853 -0.108113,0 -0.2118266,0.0435 -0.2993258,0.1206 -0.088479,0.0758 -0.1511037,0.17686 -0.1875188,0.29581 l -0.0044,0.0123 v 0.91471 h -0.26235 v -0.86629 c 0,-0.14566 -0.02372,-0.26227 -0.088917,-0.34862 -0.059777,-0.0821 -0.1552714,-0.12853 -0.2588289,-0.12853 -0.1061729,0 -0.20902548,0.0417 -0.29844539,0.1162 v 9.1e-4 h -8.7909e-4 c -0.0884788,0.0758 -0.15110366,0.17685 -0.18751882,0.2958 l -0.004402,0.0124 v 0.91823 H 0.33609478 v -1.52568 h 0.22097285 v 0.55287 l 0.15934694,-0.28172 c 0.0553758,-0.0974 0.12851368,-0.16921 0.2227337,-0.22009 0.0966704,-0.0531 0.20648233,-0.0801 0.33454053,-0.0801 z m 2.6780857,0 c 0.2298553,0 0.3941824,0.0558 0.5088538,0.15934 h 9.014e-4 l 9.015e-4,9e-4 c 0.115697,0.101 0.1743129,0.24379 0.1743129,0.45339 v 0.52822 c 0,0.0549 0.00556,0.10475 0.040496,0.14966 l 0.00176,0.003 0.00176,0.002 c 0.015542,0.0175 0.039697,0.0168 0.059865,0.0265 v 0.2421 c -0.036935,0.006 -0.07762,0.0132 -0.1056443,0.0132 -0.068867,0 -0.1107041,-0.0154 -0.1364572,-0.0361 -0.027058,-0.0235 -0.043294,-0.0507 -0.051062,-0.0933 -5.64e-5,-3.1e-4 5.59e-5,-4.4e-4 0,-9e-4 l -0.031693,-0.30285 -0.1311752,0.17256 c -0.068023,0.0894 -0.1481121,0.15475 -0.2438625,0.20072 -0.09652,0.0463 -0.1988292,0.0695 -0.3098902,0.0695 -0.072052,0 -0.1374434,-0.0109 -0.1980833,-0.0325 l -8.79e-4,-9.1e-4 c -0.061314,-0.0243 -0.1127906,-0.056 -0.1558255,-0.0951 -0.044097,-0.0423 -0.078096,-0.0904 -0.1038837,-0.14526 -1.773e-4,-3.8e-4 -7.031e-4,-4.5e-4 -8.789e-4,-8.9e-4 -0.022422,-0.0527 -0.034334,-0.11055 -0.034334,-0.17696 0,-0.0672 0.014336,-0.12609 0.042257,-0.18048 v -9e-4 c 0.031018,-0.0582 0.072086,-0.106 0.1250125,-0.14615 0.055592,-0.0406 0.1225087,-0.0725 0.2024852,-0.0959 h 8.789e-4 l 8.79e-4,-9.1e-4 c 0.079163,-0.0251 0.1667586,-0.0378 0.2649914,-0.0378 0.070682,0 0.1391117,0.006 0.2051262,0.0185 h 8.789e-4 c 0.068275,0.012 0.1262428,0.0286 0.1751937,0.0493 l 0.1197303,0.0501 v -0.22625 c 0,-0.12834 -0.040586,-0.24198 -0.1241321,-0.32046 -0.083145,-0.0803 -0.2016813,-0.11445 -0.3407033,-0.11445 -0.1008868,0 -0.2002043,0.0179 -0.2958043,0.0537 -0.065286,0.0245 -0.1313406,0.0663 -0.1972029,0.10565 l -0.052822,-0.10917 c 0.1855049,-0.10808 0.3773596,-0.18048 0.5880872,-0.18048 z m 1.8663844,0 c 0.1186147,0 0.2170002,0.0266 0.301967,0.0783 l 9.015e-4,9e-4 c 0.088026,0.0517 0.1594247,0.11968 0.2174514,0.20865 l 0.1575861,0.24123 v -0.50006 h 0.2077676 v 1.53096 c 0,0.11442 -0.021045,0.21264 -0.062506,0.29933 -0.042343,0.0885 -0.1004324,0.16227 -0.1751937,0.22361 l -9.015e-4,9e-4 c -0.072481,0.061 -0.1611024,0.1088 -0.2685129,0.14263 -0.1050462,0.0337 -0.2211732,0.0511 -0.349507,0.0511 -0.1760749,0 -0.3196459,-0.0301 -0.4322615,-0.0854 -0.09005,-0.0435 -0.1626692,-0.11336 -0.2332981,-0.18664 L 5.29786,296.38255 c 0.060455,0.0577 0.12053,0.11658 0.1989635,0.15319 v 8.9e-4 c 0.110206,0.0503 0.2285075,0.0757 0.3503874,0.0757 0.073991,0 0.1457232,-0.011 0.2139297,-0.0326 3.931e-4,-1.1e-4 4.959e-4,-8.9e-4 9.015e-4,-8.9e-4 0.072677,-0.0202 0.1387817,-0.0531 0.1954418,-0.0995 0.057941,-0.0475 0.1030725,-0.10861 0.1338163,-0.17959 v -9.1e-4 c 0.034063,-0.0737 0.050182,-0.15676 0.050181,-0.24826 v -0.52558 -0.008 -0.42875 l -0.00616,-0.015 c -0.044214,-0.11298 -0.1172503,-0.2076 -0.2139303,-0.27731 -0.094184,-0.0694 -0.200167,-0.10741 -0.3098902,-0.10741 -0.079831,0 -0.1555839,0.0188 -0.2227333,0.0563 -0.063198,0.0333 -0.1186576,0.0793 -0.1637492,0.13645 -1.604e-4,2e-4 1.605e-4,9.1e-4 0,9.1e-4 -0.04539,0.0556 -0.081151,0.12 -0.1056444,0.19104 v 9e-4 l -9.015e-4,0.002 c -0.021996,0.0708 -0.032571,0.14398 -0.032571,0.21921 0,0.0789 0.013563,0.15546 0.041379,0.22625 0.027226,0.0693 0.065352,0.13159 0.1135682,0.18488 v 9e-4 l 9.014e-4,9.1e-4 c 0.05035,0.0529 0.1093789,0.0946 0.1751937,0.125 0.067901,0.0314 0.1429832,0.0466 0.2209727,0.0466 0.056588,0 0.1113207,-0.009 0.1637488,-0.0273 0.050448,-0.0177 0.097634,-0.0417 0.1408592,-0.0722 0.037818,-0.0266 0.070212,-0.0595 0.100362,-0.0942 l -0.061625,0.10741 c -0.048396,0.0838 -0.1140261,0.14663 -0.2024853,0.19368 -0.089195,0.0452 -0.1836857,0.0678 -0.2870007,0.0678 -0.1031324,0 -0.1925313,-0.0197 -0.2729144,-0.059 -0.082285,-0.0402 -0.1532629,-0.0941 -0.2148104,-0.16287 v -9.1e-4 c -0.059947,-0.0717 -0.1073979,-0.15378 -0.1408593,-0.24826 -0.033333,-0.0941 -0.050181,-0.19347 -0.050181,-0.30108 0,-0.11408 0.01766,-0.21858 0.052822,-0.31429 0.035609,-0.0969 0.084962,-0.18004 0.1470219,-0.2518 0.06135,-0.0709 0.1342205,-0.1259 0.2209732,-0.16638 0.085273,-0.0398 0.1788577,-0.0598 0.2843593,-0.0598 z m 2.4315819,0 c 0.09532,0 0.1656969,0.0177 0.2156909,0.0466 0.055546,0.0323 0.09588,0.0718 0.1250126,0.12149 0.030894,0.0527 0.05191,0.11323 0.063387,0.18399 v 9.1e-4 l 9.015e-4,0.002 c 0.014117,0.0746 0.021127,0.15034 0.021127,0.22713 v 0.97281 H 8.4126282 v -0.86628 c 0,-0.14601 -0.022484,-0.2631 -0.088037,-0.34951 -0.062233,-0.082 -0.1604307,-0.12765 -0.2658719,-0.12765 -0.054605,0 -0.1099509,0.0104 -0.1637487,0.0308 -0.053722,0.0204 -0.1043381,0.05 -0.1514238,0.0871 -0.045368,0.0353 -0.086751,0.0781 -0.1232517,0.12677 -0.038417,0.0512 -0.066586,0.10844 -0.084516,0.16992 l -0.00351,0.0115 v 0.91735 H 7.2699139 v -1.52569 h 0.2200923 v 0.54671 l 0.1602275,-0.27555 c 0.054312,-0.0936 0.1310013,-0.16534 0.2368197,-0.21921 0.1058585,-0.0539 0.2253039,-0.081 0.3627122,-0.081 z m 1.6788654,0 c 0.1283828,0 0.2397848,0.0222 0.3354208,0.0643 0.100635,0.0434 0.183777,0.1007 0.250906,0.17168 h 9.01e-4 c 0.06953,0.0715 0.120925,0.15413 0.155826,0.24914 v 9e-4 c 0.03726,0.0961 0.05634,0.19512 0.05634,0.29933 0,0.0212 -0.0013,0.0412 -0.0027,0.0608 H 9.3977225 l 0.00879,0.0933 c 0.00731,0.0757 0.025998,0.14618 0.057222,0.20865 0.030382,0.0608 0.070457,0.11438 0.1197302,0.15846 0.048787,0.0437 0.1049239,0.0773 0.1663899,0.10036 0.061347,0.023 0.1258963,0.0343 0.191921,0.0343 0.099932,0 0.1958804,-0.0247 0.2834784,-0.0722 h 9.02e-4 c 0.06397,-0.0356 0.09962,-0.0936 0.138219,-0.14878 l 0.196321,0.0546 c -0.0526,0.0725 -0.100801,0.14706 -0.19016,0.20161 -0.120935,0.073 -0.266894,0.11092 -0.4445868,0.11092 -0.1262015,0 -0.2378409,-0.0212 -0.3363008,-0.0616 h -9.018e-4 c -0.099968,-0.0434 -0.1835518,-0.10063 -0.2526656,-0.17166 -0.069624,-0.0716 -0.1236884,-0.15381 -0.1628687,-0.24915 v -9e-4 c -0.036986,-0.0957 -0.055465,-0.19571 -0.055465,-0.30197 0,-0.11124 0.018414,-0.21345 0.055465,-0.30901 v -9.1e-4 c 0.037134,-0.0977 0.089805,-0.18119 0.1593468,-0.25266 h 9.017e-4 v -9e-4 c 0.069523,-0.0734 0.1531587,-0.13102 0.2535471,-0.17432 0.1006722,-0.0425 0.2132004,-0.0643 0.3415837,-0.0643 z m 5.8421358,0 c 0.173419,0 0.313861,0.0371 0.42786,0.1074 h 9.01e-4 c 0.0849,0.0515 0.133885,0.12568 0.186639,0.19808 l -0.251786,0.0766 c -0.03723,-0.0452 -0.07197,-0.0937 -0.123252,-0.12149 -0.07343,-0.042 -0.156131,-0.0625 -0.242982,-0.0625 -0.07443,0 -0.14654,0.0161 -0.212169,0.0475 -0.06387,0.0286 -0.121183,0.0704 -0.169031,0.12325 -0.04683,0.0521 -0.08312,0.11476 -0.110046,0.18576 l -9.02e-4,9e-4 -9.02e-4,0.002 c -0.02506,0.0727 -0.03698,0.15133 -0.03698,0.23506 0,0.0845 0.01357,0.16439 0.04138,0.2377 0.02681,0.0707 0.06323,0.13305 0.109167,0.18664 l 9.02e-4,9e-4 9e-4,9e-4 c 0.04812,0.0532 0.105109,0.0961 0.169032,0.12677 l 9.01e-4,9.1e-4 0.0018,9e-4 c 0.06477,0.0285 0.134331,0.0423 0.206007,0.0423 0.09135,0 0.178861,-0.0236 0.256187,-0.0695 l 9.02e-4,-9e-4 c 0.05194,-0.0303 0.08223,-0.0763 0.116209,-0.11974 l 0.253546,0.0775 c -0.04977,0.0728 -0.096,0.14733 -0.183117,0.20072 -0.11866,0.0727 -0.262152,0.11005 -0.437544,0.11005 -0.128383,0 -0.2399,-0.0219 -0.338062,-0.0643 -0.100581,-0.0434 -0.184088,-0.10042 -0.253547,-0.17167 -0.07009,-0.074 -0.124489,-0.15711 -0.163748,-0.25267 v -8.9e-4 c -0.03718,-0.0981 -0.05634,-0.19923 -0.05634,-0.3055 0,-0.1089 0.01922,-0.21063 0.05634,-0.30637 0.03706,-0.0956 0.08954,-0.17827 0.159347,-0.25002 0.06955,-0.0715 0.153605,-0.12818 0.254426,-0.17167 0.09816,-0.0424 0.20968,-0.0643 0.338062,-0.0643 z m 2.555714,0 c 0.173419,0 0.314742,0.0371 0.42874,0.1074 0.0849,0.0515 0.133885,0.12568 0.186638,0.19808 l -0.251785,0.0766 c -0.03723,-0.0452 -0.07197,-0.0937 -0.123252,-0.12149 -0.07343,-0.042 -0.156131,-0.0625 -0.242982,-0.0625 -0.07443,0 -0.14654,0.0161 -0.212169,0.0475 -0.06387,0.0286 -0.121183,0.0704 -0.169031,0.12325 -0.04684,0.0521 -0.08312,0.11476 -0.110047,0.18576 l -9.01e-4,9e-4 v 0.002 c -0.02505,0.0727 -0.03786,0.15133 -0.03786,0.23506 0,0.0845 0.01357,0.16439 0.04138,0.2377 0.02681,0.0707 0.06323,0.13305 0.109166,0.18664 l 9.02e-4,9e-4 9.01e-4,9e-4 c 0.04812,0.0532 0.105108,0.0961 0.169031,0.12677 l 9.02e-4,9.1e-4 0.0018,9e-4 c 0.06477,0.0285 0.134331,0.0423 0.206007,0.0423 0.09135,0 0.178861,-0.0236 0.256187,-0.0695 l 9.02e-4,-9e-4 c 0.05194,-0.0303 0.08223,-0.0763 0.116209,-0.11974 l 0.253546,0.0775 c -0.04977,0.0728 -0.09601,0.14733 -0.183117,0.20072 -0.118661,0.0727 -0.262152,0.11005 -0.437544,0.11005 -0.128383,0 -0.2399,-0.0219 -0.338062,-0.0643 -0.100581,-0.0434 -0.184088,-0.10042 -0.253547,-0.17167 -0.07009,-0.074 -0.124489,-0.15711 -0.163748,-0.25267 v -8.9e-4 c -0.03718,-0.0981 -0.05634,-0.19923 -0.05634,-0.3055 0,-0.1089 0.01922,-0.21063 0.05634,-0.30637 0.03706,-0.0956 0.08954,-0.17827 0.159347,-0.25002 0.06956,-0.0715 0.153605,-0.12818 0.254427,-0.17167 0.09816,-0.0424 0.209679,-0.0643 0.338061,-0.0643 z m 1.80652,0 c 0.128383,0 0.238904,0.0222 0.33454,0.0643 h 9.01e-4 c 0.100202,0.0432 0.182033,0.10057 0.249146,0.17344 l 9.01e-4,8.9e-4 9.01e-4,9.1e-4 c 0.06981,0.0718 0.122285,0.15443 0.159347,0.25002 0.03712,0.0957 0.05634,0.19659 0.05634,0.30549 0,0.10656 -0.01915,0.20693 -0.05634,0.30284 -0.03732,0.0962 -0.0892,0.18019 -0.157586,0.25444 -0.06704,0.0707 -0.149632,0.12748 -0.250025,0.17078 -0.09816,0.0424 -0.209679,0.0643 -0.338063,0.0643 -0.128382,0 -0.24078,-0.0219 -0.338942,-0.0643 -0.100179,-0.0432 -0.18337,-0.0999 -0.252666,-0.17078 -0.06838,-0.0743 -0.120269,-0.15819 -0.157586,-0.25444 -0.03719,-0.0959 -0.05634,-0.19628 -0.05634,-0.30284 0,-0.1089 0.01922,-0.20976 0.05634,-0.30549 0.03724,-0.0961 0.08879,-0.1791 0.156706,-0.2509 0.06952,-0.0733 0.153159,-0.13102 0.253546,-0.17432 0.09816,-0.0424 0.21056,-0.0643 0.338942,-0.0643 z m 2.200925,0 c 0.128673,0 0.214603,0.0301 0.272914,0.0818 0.06512,0.0579 0.104308,0.12463 0.122372,0.20953 l 0.04578,0.21481 0.111807,-0.1884 c 0.06263,-0.10569 0.138469,-0.18238 0.230656,-0.23506 l 9.02e-4,-9e-4 h 9.02e-4 c 0.09196,-0.0544 0.195797,-0.0819 0.318694,-0.0819 0.09294,0 0.16271,0.0175 0.21305,0.0466 0.05555,0.0323 0.09588,0.0718 0.125012,0.1215 0.03089,0.0527 0.05191,0.11322 0.06339,0.18399 v 9e-4 l 9e-4,0.002 c 0.01412,0.0746 0.02112,0.15034 0.02112,0.22714 v 0.97281 h -0.26323 v -0.86629 c 0,-0.146 -0.02336,-0.26309 -0.08892,-0.3495 -0.05983,-0.0815 -0.155692,-0.12765 -0.258829,-0.12765 -0.10784,0 -0.211088,0.0438 -0.298445,0.1206 -0.08848,0.0758 -0.151984,0.17686 -0.1884,0.29581 l -0.0035,0.0123 v 0.91471 h -0.263231 v -0.86629 c 0,-0.14566 -0.02284,-0.26227 -0.08804,-0.34862 -0.05977,-0.0821 -0.15615,-0.12853 -0.259708,-0.12853 -0.106174,0 -0.208146,0.0417 -0.297566,0.1162 l -9.01e-4,9.1e-4 c -0.08848,0.0758 -0.151984,0.17685 -0.188399,0.2958 l -0.0035,0.0124 v 0.91823 h -0.26323 v -1.52568 h 0.220972 v 0.55287 L 21.7767,294.7909 c 0.05537,-0.0974 0.127634,-0.16921 0.221854,-0.22009 h 9.01e-4 c 0.09667,-0.0531 0.206482,-0.0801 0.334541,-0.0801 z m -9.934096,0.029 h 0.263231 v 1.52567 h -0.263231 z m -2.4773612,0.11356 c -0.068228,0 -0.1344754,0.0132 -0.1963225,0.0387 -0.059645,0.0233 -0.1136066,0.0573 -0.1602275,0.10124 -0.046586,0.044 -0.085375,0.0968 -0.1153287,0.15671 l -9.009e-4,0.002 v 9e-4 c -0.028384,0.0619 -0.045235,0.12985 -0.050184,0.2016 l -0.0062,0.0916 h 1.0661278 l -0.008,-0.0925 c -0.01226,-0.14465 -0.07013,-0.27061 -0.170792,-0.36095 -0.09683,-0.091 -0.22156,-0.1391 -0.35831,-0.1391 z m 10.2105322,0.0555 c -0.07443,0 -0.146541,0.0161 -0.21217,0.0475 -0.06393,0.0307 -0.120911,0.0727 -0.169031,0.1259 l -9.02e-4,9e-4 -9.01e-4,9e-4 c -0.04594,0.0536 -0.08147,0.11683 -0.108285,0.18752 l -9.02e-4,9e-4 v 0.002 c -0.02495,0.0724 -0.03698,0.14973 -0.03698,0.23154 0,0.0837 0.01192,0.16327 0.03698,0.23594 v 9e-4 l 9.02e-4,0.002 c 0.0269,0.0684 0.06279,0.13003 0.108285,0.18311 l 9.01e-4,9.1e-4 9.02e-4,8.9e-4 c 0.04812,0.0532 0.105109,0.0961 0.169031,0.12678 l 0.0018,9e-4 9.01e-4,9e-4 c 0.06516,0.0287 0.13608,0.0423 0.209528,0.0423 0.07345,0 0.144373,-0.0136 0.209529,-0.0423 l 9.01e-4,-9e-4 0.0018,-9e-4 c 0.06373,-0.0306 0.119378,-0.0743 0.165509,-0.12765 0.04832,-0.0536 0.08518,-0.11645 0.110047,-0.18752 v -0.002 c 0.0274,-0.0729 0.04138,-0.15199 0.04138,-0.23595 0,-0.0817 -0.01345,-0.16012 -0.04049,-0.23241 l -9.02e-4,-9e-4 c -0.02482,-0.0715 -0.06066,-0.1354 -0.109166,-0.18928 -0.04596,-0.0534 -0.102543,-0.0955 -0.166389,-0.12412 -0.06563,-0.0315 -0.137737,-0.0475 -0.21217,-0.0475 z m -10.2105322,0.1162 c 0.1000762,0 0.1750232,0.0298 0.2421022,0.0933 h 9.01e-4 l 9.01e-4,9e-4 c 0.04257,0.0382 0.05305,0.10064 0.0722,0.15583 H 9.5931904 c 0.0049,-0.0163 0.00546,-0.0362 0.012319,-0.051 0.021559,-0.0424 0.047057,-0.077 0.077476,-0.10565 0.031113,-0.0294 0.065962,-0.0514 0.1056444,-0.0669 h 9.017e-4 l 9.009e-4,-9e-4 c 0.041295,-0.0172 0.08433,-0.0255 0.1320559,-0.0255 z m -4.0109658,0.0546 c 0.07166,0 0.1387245,0.0225 0.2086479,0.074 v 9.1e-4 h 9.015e-4 c 0.068423,0.0491 0.1154482,0.1133 0.1487825,0.19368 v 0.36095 c -0.011404,0.0263 -0.025634,0.0518 -0.045779,0.0766 -0.02316,0.0285 -0.049654,0.0534 -0.080114,0.0748 -0.030191,0.0214 -0.062676,0.0376 -0.098602,0.0502 -0.033946,0.0119 -0.068983,0.0185 -0.107405,0.0185 -0.055888,0 -0.104399,-0.0104 -0.1487825,-0.0308 -0.045718,-0.0211 -0.085912,-0.0502 -0.1214909,-0.0871 l -9.016e-4,-8.9e-4 c -2.916e-4,-3.1e-4 -5.859e-4,-4.6e-4 -9.015e-4,-9.1e-4 -0.033094,-0.037 -0.059269,-0.0794 -0.079233,-0.1303 -0.019693,-0.0501 -0.029934,-0.10446 -0.029934,-0.16374 0,-0.0577 0.00831,-0.11285 0.024651,-0.1664 l 9.015e-4,-9e-4 c 1.705e-4,-4.5e-4 -1.717e-4,-9.2e-4 0,-0.002 0.018512,-0.0527 0.043281,-0.097 0.074831,-0.13557 l 9.014e-4,-9e-4 9.016e-4,-9.1e-4 c 0.031837,-0.0407 0.067822,-0.0709 0.1109267,-0.0933 l 9.016e-4,-8.9e-4 0.00176,-9.1e-4 c 0.040815,-0.0228 0.085052,-0.0343 0.1390981,-0.0343 z m 14.221498,0 c 0.0508,0 0.095,0.0106 0.137337,0.0308 l 0.0018,9.1e-4 h 9.01e-4 c 0.04253,0.0187 0.07824,0.0448 0.109167,0.081 l 9.01e-4,8.9e-4 9.01e-4,9.1e-4 c 0.03288,0.0364 0.05749,0.0801 0.07571,0.13294 l 9.01e-4,9e-4 v 9e-4 c 0.01982,0.0523 0.03082,0.11013 0.03082,0.17431 0,0.0666 -0.01111,0.12502 -0.03082,0.17696 v 9e-4 l -9.01e-4,9e-4 c -0.01822,0.0528 -0.04283,0.0966 -0.07571,0.13293 l -9.01e-4,9.1e-4 -9.01e-4,9e-4 c -0.03066,0.0358 -0.06683,0.0629 -0.109167,0.0836 -2.58e-4,1.1e-4 -6.3e-4,-1.1e-4 -9.01e-4,0 -0.04259,0.0186 -0.08762,0.029 -0.139098,0.029 -0.05179,0 -0.09805,-0.0103 -0.14086,-0.029 -0.04209,-0.0206 -0.07905,-0.0479 -0.111806,-0.0836 l -9.02e-4,-9e-4 c -0.03109,-0.0364 -0.05638,-0.08 -0.07659,-0.13029 v -9e-4 c -0.01796,-0.0524 -0.02817,-0.11162 -0.02817,-0.17871 0,-0.064 0.0096,-0.12123 0.02729,-0.17344 l 9.02e-4,-9e-4 c 1.76e-4,-4.6e-4 -1.79e-4,-9.3e-4 0,-0.002 0.02037,-0.0528 0.04567,-0.0966 0.07659,-0.13294 2.43e-4,-2.8e-4 6.31e-4,-4.5e-4 9.02e-4,-9e-4 0.0335,-0.0365 0.07115,-0.0647 0.114448,-0.0854 0.04233,-0.0203 0.08741,-0.0308 0.138218,-0.0308 z m -16.1882445,0.37683 c -0.1247437,0 -0.2356574,0.0288 -0.3239762,0.0924 -2.289e-4,1.5e-4 2.284e-4,8.9e-4 0,8.9e-4 -0.088052,0.0617 -0.1435003,0.15695 -0.1435003,0.26059 0,0.0952 0.040859,0.18561 0.1126874,0.24915 h 8.79e-4 l 8.789e-4,9e-4 c 0.071848,0.0608 0.1637687,0.0916 0.2623502,0.0916 0.083196,0 0.1636714,-0.0151 0.2385803,-0.0449 0.07334,-0.0284 0.1333341,-0.0691 0.1804759,-0.12149 0.057891,-0.0469 0.1012425,-0.11208 0.1012425,-0.18487 V 295.327 l -0.056343,-0.0212 c -0.056356,-0.0212 -0.1164939,-0.0368 -0.1804759,-0.0485 -0.065771,-0.0141 -0.1300709,-0.0212 -0.192801,-0.0212 z m 0,0.17079 c 0.049555,0 0.1024358,0.006 0.1575863,0.0177 h 8.789e-4 l 0.00177,9e-4 c 0.035646,0.006 0.065934,0.017 0.097721,0.0265 v 0.12854 c 0,0.0154 -0.00386,0.0292 -0.037856,0.0555 l -0.00705,0.006 -0.00616,0.007 c -0.025545,0.0301 -0.063694,0.0572 -0.1206107,0.0793 h -8.814e-4 c -0.054421,0.0217 -0.1127327,0.0335 -0.176074,0.0335 -0.065069,0 -0.1103111,-0.0165 -0.1505432,-0.0502 l -8.789e-4,-8.9e-4 c -0.039655,-0.0354 -0.054583,-0.0686 -0.054583,-0.11974 0,-0.0515 0.016368,-0.083 0.07043,-0.12061 l 8.789e-4,-9e-4 h 8.79e-4 c 0.053952,-0.0392 0.1253857,-0.0616 0.2244944,-0.0616 z m 12.7724085,0.17255 v 0.6374 h 0.08539 0.441947 v -0.6374 z m 0.170792,0.1708 h 0.184878 v 0.29492 h -0.184878 z"
       style="color:#000000;font-style:normal;font-variant:normal;font-weight:normal;font-stretch:normal;font-size:7.18575621px;line-height:4.49109793px;font-family:sans-serif;font-variant-ligatures:normal;font-variant-position:normal;font-variant-caps:normal;font-variant-numeric:normal;font-variant-alternates:normal;font-feature-settings:normal;text-indent:0;text-align:start;text-decoration:none;text-decoration-line:none;text-decoration-style:solid;text-decoration-color:#000000;letter-spacing:0px;word-spacing:0px;text-transform:none;writing-mode:lr-tb;direction:ltr;text-orientation:mixed;dominant-baseline:auto;baseline-shift:baseline;text-anchor:start;white-space:normal;shape-padding:0;clip-rule:nonzero;display:inline;overflow:visible;visibility:visible;opacity:1;isolation:auto;mix-blend-mode:normal;color-interpolation:sRGB;color-interpolation-filters:linearRGB;solid-color:#000000;solid-opacity:1;vector-effect:none;fill:#000000;fill-opacity:1;fill-rule:nonzero;stroke:none;stroke-width:0.17128479;stroke-linecap:butt;stroke-linejoin:miter;stroke-miterlimit:4;stroke-dasharray:none;stroke-dashoffset:0;stroke-opacity:1;color-rendering:auto;image-rendering:auto;shape-rendering:auto;text-rendering:auto;enable-background:accumulate" />
    <g
       transform="matrix(0.45074946,0,0,0.45074946,-0.09792765,219.22424)"
       id="text817-6-5-5-2-1-7-6-3"
       style="font-style:normal;font-weight:normal;font-size:7.18575621px;line-height:4.49109793px;font-family:sans-serif;letter-spacing:0px;word-spacing:0px;display:inline;fill:#ffffff;fill-opacity:1;stroke:none;stroke-width:0.1796439"
       aria-label="magnetific.com">
      <path
         id="path1048"
         style="font-style:normal;font-variant:normal;font-weight:bold;font-stretch:normal;font-family:Raleway;-inkscape-font-specification:'Raleway Bold';fill:#ffffff;fill-opacity:1;stroke-width:0.1796439"
         d="M 6.6221317,170.62035 H 5.6592404 v -2.11262 q 0,-0.4527 -0.1580867,-0.66109 -0.1509008,-0.20838 -0.4239596,-0.20838 -0.2874302,0 -0.5389317,0.22276 -0.2515015,0.21557 -0.3592878,0.56767 v 2.19166 H 3.2160833 v -2.11262 q 0,-0.4527 -0.1580867,-0.66109 -0.1509009,-0.20838 -0.4239596,-0.20838 -0.2802445,0 -0.5389317,0.21557 -0.2515015,0.21557 -0.3592878,0.56767 v 2.19885 H 0.77292615 v -3.76534 H 1.6424027 v 0.69702 q 0.2083869,-0.36648 0.5676747,-0.56049 0.3664736,-0.2012 0.8335477,-0.2012 0.4742599,0 0.7329471,0.22994 0.2586873,0.22995 0.3305448,0.56768 0.2299442,-0.38803 0.5820463,-0.58924 0.352102,-0.20838 0.8048047,-0.20838 0.3449163,0 0.5676747,0.12934 0.2227585,0.12935 0.3449163,0.33773 0.1221579,0.20839 0.1652724,0.47426 0.0503,0.26588 0.0503,0.53893 z" />
      <path
         id="path1050"
         style="font-style:normal;font-variant:normal;font-weight:bold;font-stretch:normal;font-family:Raleway;-inkscape-font-specification:'Raleway Bold';fill:#ffffff;fill-opacity:1;stroke-width:0.1796439"
         d="m 8.4950317,170.6922 q -0.2730587,0 -0.5101887,-0.0862 -0.2371299,-0.0934 -0.4095881,-0.2515 -0.1724581,-0.16527 -0.2730587,-0.38084 -0.093415,-0.21557 -0.093415,-0.47426 0,-0.26587 0.1149721,-0.48863 0.1221579,-0.22995 0.3305448,-0.38803 0.2155727,-0.15809 0.5101887,-0.24432 0.294616,-0.0934 0.6467181,-0.0934 0.2515014,0 0.4886314,0.0431 0.2443157,0.0431 0.4311454,0.12216 v -0.21557 q 0,-0.37366 -0.2155727,-0.57487 -0.2083869,-0.2012 -0.6251608,-0.2012 -0.3018018,0 -0.589232,0.10779 -0.2874303,0.10779 -0.589232,0.31617 l -0.294616,-0.61079 q 0.7257613,-0.48144 1.5664948,-0.48144 0.8119905,0 1.257507,0.4024 0.452703,0.39522 0.452703,1.14972 v 1.17128 q 0,0.1509 0.0503,0.21557 0.05749,0.0647 0.179644,0.0719 v 0.81918 q -0.244315,0.0503 -0.423959,0.0503 -0.273059,0 -0.42396,-0.12216 -0.1437152,-0.12216 -0.1796439,-0.32336 l -0.021557,-0.20839 q -0.2515015,0.33055 -0.6107893,0.50301 -0.3592878,0.17245 -0.7688759,0.17245 z m 0.2730587,-0.7042 q 0.2443157,0 0.4598884,-0.0862 0.2227585,-0.0862 0.3449163,-0.22994 0.1580867,-0.12216 0.1580867,-0.27306 v -0.43115 q -0.1724582,-0.0647 -0.3736594,-0.1006 -0.2012011,-0.0431 -0.3880308,-0.0431 -0.3736593,0 -0.6107893,0.17246 -0.2371299,0.16527 -0.2371299,0.42395 0,0.24432 0.1868296,0.40959 0.1868297,0.15809 0.4598884,0.15809 z" />
      <path
         id="path1052"
         style="font-style:normal;font-variant:normal;font-weight:bold;font-stretch:normal;font-family:Raleway;-inkscape-font-specification:'Raleway Bold';fill:#ffffff;fill-opacity:1;stroke-width:0.1796439"
         d="m 13.066744,170.6419 q -0.380845,0 -0.689833,-0.1509 -0.308987,-0.1509 -0.538931,-0.40959 -0.222759,-0.26587 -0.344917,-0.61078 -0.122157,-0.34492 -0.122157,-0.73295 0,-0.40959 0.129343,-0.76169 0.129344,-0.3521 0.359288,-0.61798 0.229944,-0.26587 0.553303,-0.41677 0.323359,-0.1509 0.71139,-0.1509 0.438331,0 0.768876,0.2012 0.330545,0.19401 0.546117,0.52456 v -0.66109 h 0.840734 v 3.58569 q 0,0.41678 -0.158087,0.74732 -0.158086,0.33055 -0.438331,0.56049 -0.273059,0.22994 -0.661089,0.3521 -0.380845,0.12216 -0.833548,0.12216 -0.617975,0 -1.041935,-0.20839 -0.416774,-0.2012 -0.718575,-0.57486 l 0.52456,-0.51019 q 0.215572,0.26588 0.538932,0.41678 0.330544,0.1509 0.697018,0.1509 0.222758,0 0.423959,-0.0647 0.208387,-0.0575 0.366474,-0.18683 0.158087,-0.12935 0.244316,-0.33055 0.09342,-0.2012 0.09342,-0.47426 v -0.47426 q -0.18683,0.32336 -0.524561,0.50301 -0.33773,0.17245 -0.725761,0.17245 z m 0.323359,-0.76887 q 0.158087,0 0.301802,-0.0503 0.143715,-0.0503 0.265873,-0.13653 0.122158,-0.0862 0.215572,-0.2012 0.09342,-0.11498 0.143716,-0.24432 v -0.89822 q -0.129344,-0.33054 -0.409589,-0.53174 -0.273058,-0.20121 -0.57486,-0.20121 -0.222758,0 -0.402402,0.1006 -0.179644,0.0934 -0.308988,0.25869 -0.129343,0.15809 -0.201201,0.36648 -0.06467,0.20838 -0.06467,0.43114 0,0.22995 0.07904,0.43115 0.07904,0.2012 0.215573,0.3521 0.143715,0.1509 0.330545,0.23713 0.18683,0.0862 0.409588,0.0862 z" />
      <path
         id="path1054"
         style="font-style:normal;font-variant:normal;font-weight:bold;font-stretch:normal;font-family:Raleway;-inkscape-font-specification:'Raleway Bold';fill:#ffffff;fill-opacity:1;stroke-width:0.1796439"
         d="m 19.654399,170.62035 h -0.962891 v -2.11262 q 0,-0.4527 -0.158087,-0.66109 -0.158087,-0.20838 -0.438331,-0.20838 -0.143715,0 -0.294616,0.0575 -0.150901,0.0575 -0.28743,0.16528 -0.129344,0.1006 -0.23713,0.24431 -0.107787,0.14372 -0.158087,0.31617 v 2.19885 h -0.962891 v -3.76534 h 0.869476 v 0.69702 q 0.208387,-0.35929 0.603604,-0.56049 0.395216,-0.2012 0.891033,-0.2012 0.352103,0 0.574861,0.12934 0.222758,0.12935 0.344916,0.33773 0.122158,0.20839 0.165273,0.47426 0.0503,0.26588 0.0503,0.53893 z" />
      <path
         id="path1056"
         style="font-style:normal;font-variant:normal;font-weight:bold;font-stretch:normal;font-family:Raleway;-inkscape-font-specification:'Raleway Bold';fill:#ffffff;fill-opacity:1;stroke-width:0.1796439"
         d="m 22.23779,170.6922 q -0.452703,0 -0.819176,-0.1509 -0.366474,-0.15808 -0.625161,-0.42396 -0.258687,-0.26587 -0.402402,-0.61797 -0.13653,-0.3521 -0.13653,-0.74013 0,-0.40241 0.13653,-0.75451 0.136529,-0.35929 0.395216,-0.62516 0.258688,-0.27306 0.625161,-0.43115 0.373659,-0.15808 0.833548,-0.15808 0.459888,0 0.819176,0.15808 0.366474,0.15809 0.617975,0.42396 0.258687,0.26588 0.388031,0.61798 0.136529,0.3521 0.136529,0.73295 0,0.0934 -0.0072,0.17964 0,0.0862 -0.01437,0.14372 h -2.910231 q 0.02156,0.22275 0.107786,0.39521 0.08623,0.17246 0.222759,0.29462 0.136529,0.12216 0.308987,0.18683 0.172458,0.0647 0.359288,0.0647 0.28743,0 0.538932,-0.13653 0.258687,-0.14371 0.352102,-0.37366 l 0.826362,0.22995 q -0.208387,0.43114 -0.668276,0.71138 -0.452702,0.27306 -1.085049,0.27306 z m 0.977263,-2.2707 q -0.03593,-0.42395 -0.316173,-0.67546 -0.273059,-0.25868 -0.668276,-0.25868 -0.194015,0 -0.366473,0.0719 -0.165273,0.0647 -0.294616,0.18683 -0.129344,0.12216 -0.215573,0.29462 -0.07904,0.17246 -0.09342,0.38084 z" />
      <path
         id="path1058"
         style="font-style:normal;font-variant:normal;font-weight:bold;font-stretch:normal;font-family:Raleway;-inkscape-font-specification:'Raleway Bold';fill:#ffffff;fill-opacity:1;stroke-width:0.1796439"
         d="m 27.028557,170.42633 q -0.194015,0.0862 -0.474259,0.17246 -0.280245,0.0862 -0.589232,0.0862 -0.201202,0 -0.380846,-0.0503 -0.172458,-0.0503 -0.308987,-0.15809 -0.129344,-0.11497 -0.208387,-0.28743 -0.07904,-0.17964 -0.07904,-0.43114 v -2.16292 h -0.495818 v -0.74013 h 0.495818 v -1.22158 h 0.962891 v 1.22158 h 0.790433 v 0.74013 h -0.790433 v 1.83956 q 0,0.2012 0.100601,0.28743 0.107786,0.079 0.258687,0.079 0.150901,0 0.294616,-0.0503 0.143715,-0.0503 0.229944,-0.0862 z" />
      <path
         id="path1060"
         style="font-style:normal;font-variant:normal;font-weight:bold;font-stretch:normal;font-family:Raleway;-inkscape-font-specification:'Raleway Bold';fill:#ffffff;fill-opacity:1;stroke-width:0.1796439"
         d="m 27.537062,170.62035 v -3.76534 h 0.962891 v 3.76534 z m 0,-4.2899 v -0.95571 h 0.962891 v 0.95571 z" />
      <path
         id="path1062"
         style="font-style:normal;font-variant:normal;font-weight:bold;font-stretch:normal;font-family:Raleway;-inkscape-font-specification:'Raleway Bold';fill:#ffffff;fill-opacity:1;stroke-width:0.1796439"
         d="m 29.605549,167.78916 h -0.495818 v -0.73295 h 0.495818 v -0.22994 q 0,-0.30899 0.1006,-0.58924 0.107787,-0.28024 0.301802,-0.48144 0.201201,-0.20839 0.481446,-0.33055 0.28743,-0.12215 0.646718,-0.12215 0.409588,0 0.747318,0.13653 0.344917,0.12934 0.646718,0.33054 l -0.380845,0.71858 q -0.186829,-0.16528 -0.438331,-0.26588 -0.251501,-0.1006 -0.510188,-0.1006 -0.32336,0 -0.481446,0.2012 -0.150901,0.20121 -0.150901,0.46708 v 0.26587 h 2.019197 v 3.56414 h -0.962891 v -2.83119 H 30.56844 v 2.83119 h -0.962891 z" />
      <path
         id="path1064"
         style="font-style:normal;font-variant:normal;font-weight:bold;font-stretch:normal;font-family:Raleway;-inkscape-font-specification:'Raleway Bold';fill:#ffffff;fill-opacity:1;stroke-width:0.1796439"
         d="m 33.222568,168.73768 q 0,-0.39522 0.136529,-0.74732 0.136529,-0.3521 0.395217,-0.61798 0.258687,-0.26587 0.62516,-0.42396 0.366474,-0.15808 0.826362,-0.15808 0.617975,0 1.049121,0.26587 0.438331,0.26587 0.653904,0.69702 l -0.941335,0.28743 q -0.122157,-0.20839 -0.323359,-0.31617 -0.201201,-0.11498 -0.445516,-0.11498 -0.208387,0 -0.388031,0.0862 -0.179644,0.079 -0.316174,0.22995 -0.129343,0.14371 -0.208386,0.3521 -0.07186,0.20839 -0.07186,0.45989 0,0.2515 0.07904,0.45989 0.07904,0.20838 0.208387,0.35928 0.13653,0.15091 0.316173,0.23713 0.179644,0.079 0.380846,0.079 0.258687,0 0.474259,-0.12935 0.222759,-0.12934 0.308988,-0.31617 l 0.941334,0.28743 q -0.194015,0.43115 -0.639532,0.7042 -0.445517,0.27306 -1.070678,0.27306 -0.459888,0 -0.826362,-0.15808 -0.366473,-0.15809 -0.625161,-0.42396 -0.258687,-0.27306 -0.402402,-0.62516 -0.136529,-0.35929 -0.136529,-0.74732 z" />
      <path
         id="path1066"
         style="font-style:normal;font-variant:normal;font-weight:bold;font-stretch:normal;font-family:Raleway;-inkscape-font-specification:'Raleway Bold';fill:#ffffff;fill-opacity:1;stroke-width:0.1796439"
         d="m 37.494163,170.62035 v -1.03475 h 0.790433 v 1.03475 z" />
      <path
         id="path1068"
         style="font-style:normal;font-variant:normal;font-weight:bold;font-stretch:normal;font-family:Raleway;-inkscape-font-specification:'Raleway Bold';fill:#ffffff;fill-opacity:1;stroke-width:0.1796439"
         d="m 38.892577,168.73768 q 0,-0.39522 0.13653,-0.74732 0.136529,-0.3521 0.395216,-0.61798 0.258687,-0.26587 0.625161,-0.42396 0.366474,-0.15808 0.826362,-0.15808 0.617975,0 1.04912,0.26587 0.438331,0.26587 0.653904,0.69702 l -0.941334,0.28743 q -0.122158,-0.20839 -0.323359,-0.31617 -0.201201,-0.11498 -0.445517,-0.11498 -0.208387,0 -0.388031,0.0862 -0.179644,0.079 -0.316173,0.22995 -0.129344,0.14371 -0.208387,0.3521 -0.07186,0.20839 -0.07186,0.45989 0,0.2515 0.07904,0.45989 0.07904,0.20838 0.208387,0.35928 0.136529,0.15091 0.316173,0.23713 0.179644,0.079 0.380845,0.079 0.258687,0 0.47426,-0.12935 0.222759,-0.12934 0.308988,-0.31617 l 0.941334,0.28743 q -0.194016,0.43115 -0.639533,0.7042 -0.445517,0.27306 -1.070677,0.27306 -0.459889,0 -0.826362,-0.15808 -0.366474,-0.15809 -0.625161,-0.42396 -0.258687,-0.27306 -0.402402,-0.62516 -0.13653,-0.35929 -0.13653,-0.74732 z" />
      <path
         id="path1070"
         style="font-style:normal;font-variant:normal;font-weight:bold;font-stretch:normal;font-family:Raleway;-inkscape-font-specification:'Raleway Bold';fill:#ffffff;fill-opacity:1;stroke-width:0.1796439"
         d="m 44.88258,170.6922 q -0.459888,0 -0.826362,-0.15808 -0.366474,-0.15809 -0.625161,-0.42396 -0.251501,-0.27306 -0.388031,-0.62516 -0.136529,-0.35211 -0.136529,-0.74014 0,-0.39521 0.136529,-0.74731 0.13653,-0.35211 0.388031,-0.61798 0.258687,-0.27306 0.625161,-0.43115 0.366474,-0.15808 0.826362,-0.15808 0.459888,0 0.819176,0.15808 0.366474,0.15809 0.617975,0.43115 0.258687,0.26587 0.395217,0.61798 0.136529,0.3521 0.136529,0.74731 0,0.38803 -0.136529,0.74014 -0.13653,0.3521 -0.388031,0.62516 -0.251501,0.26587 -0.617975,0.42396 -0.366474,0.15808 -0.826362,0.15808 z m -0.984449,-1.94734 q 0,0.25151 0.07186,0.45989 0.07904,0.2012 0.208387,0.3521 0.136529,0.15091 0.316173,0.23713 0.179644,0.079 0.388031,0.079 0.208387,0 0.388031,-0.079 0.179644,-0.0862 0.308987,-0.23713 0.13653,-0.1509 0.208387,-0.35928 0.07904,-0.20839 0.07904,-0.45989 0,-0.24432 -0.07904,-0.4527 -0.07186,-0.20839 -0.208387,-0.35929 -0.129343,-0.1509 -0.308987,-0.22995 -0.179644,-0.0862 -0.388031,-0.0862 -0.208387,0 -0.388031,0.0862 -0.179644,0.0862 -0.316173,0.23713 -0.129344,0.1509 -0.208387,0.35929 -0.07186,0.20839 -0.07186,0.4527 z" />
      <path
         id="path1072"
         style="font-style:normal;font-variant:normal;font-weight:bold;font-stretch:normal;font-family:Raleway;-inkscape-font-specification:'Raleway Bold';fill:#ffffff;fill-opacity:1;stroke-width:0.1796439"
         d="m 53.343583,170.62035 h -0.962892 v -2.11262 q 0,-0.4527 -0.158086,-0.66109 -0.150901,-0.20838 -0.42396,-0.20838 -0.28743,0 -0.538932,0.22276 -0.251501,0.21557 -0.359288,0.56767 v 2.19166 h -0.962891 v -2.11262 q 0,-0.4527 -0.158087,-0.66109 -0.1509,-0.20838 -0.423959,-0.20838 -0.280245,0 -0.538932,0.21557 -0.251501,0.21557 -0.359288,0.56767 v 2.19885 h -0.962891 v -3.76534 h 0.869476 v 0.69702 q 0.208387,-0.36648 0.567675,-0.56049 0.366474,-0.2012 0.833548,-0.2012 0.47426,0 0.732947,0.22994 0.258687,0.22995 0.330545,0.56768 0.229944,-0.38803 0.582046,-0.58924 0.352102,-0.20838 0.804805,-0.20838 0.344916,0 0.567675,0.12934 0.222758,0.12935 0.344916,0.33773 0.122158,0.20839 0.165272,0.47426 0.0503,0.26588 0.0503,0.53893 z" />
    </g>
  </g>
</svg>
