<?xml version="1.0" encoding="UTF-8" standalone="no"?>
<svg
   xmlns:dc="http://purl.org/dc/elements/1.1/"
   xmlns:cc="http://creativecommons.org/ns#"
   xmlns:rdf="http://www.w3.org/1999/02/22-rdf-syntax-ns#"
   xmlns:svg="http://www.w3.org/2000/svg"
   xmlns="http://www.w3.org/2000/svg"
   width="16"
   height="16"
   version="1.1"
   viewBox="0 0 423.33331 423.33331"
   id="svg863"
   style="clip-rule:evenodd;fill-rule:evenodd;image-rendering:optimizeQuality;shape-rendering:geometricPrecision;text-rendering:geometricPrecision">
  <metadata
     id="metadata867">
    <rdf:RDF>
      <cc:Work
         rdf:about="">
        <dc:format>image/svg+xml</dc:format>
        <dc:type
           rdf:resource="http://purl.org/dc/dcmitype/StillImage" />
        <dc:title></dc:title>
      </cc:Work>
    </rdf:RDF>
  </metadata>
  <defs
     id="defs849">
    <style
       type="text/css"
       id="style842">.str0 {stroke:white;stroke-width:176.38;stroke-linecap:round;stroke-linejoin:round} .fil1 {fill:none} .fil0 {fill:url(#a)}</style>
    <linearGradient
       id="a"
       x1="8595.4004"
       x2="548.64001"
       y1="8595.4004"
       y2="548.63"
       gradientUnits="userSpaceOnUse">
      <stop
         stop-color="#48CFAE"
         offset="0"
         id="stop844" />
      <stop
         stop-color="#4FC0E8"
         offset="1"
         id="stop846" />
    </linearGradient>
  </defs>
  <path
     style="color:#000000;font-style:normal;font-variant:normal;font-weight:normal;font-stretch:normal;font-size:medium;line-height:normal;font-family:sans-serif;font-variant-ligatures:normal;font-variant-position:normal;font-variant-caps:normal;font-variant-numeric:normal;font-variant-alternates:normal;font-feature-settings:normal;text-indent:0;text-align:start;text-decoration:none;text-decoration-line:none;text-decoration-style:solid;text-decoration-color:#000000;letter-spacing:normal;word-spacing:normal;text-transform:none;writing-mode:lr-tb;direction:ltr;text-orientation:mixed;dominant-baseline:auto;baseline-shift:baseline;text-anchor:start;white-space:normal;shape-padding:0;clip-rule:nonzero;display:inline;overflow:visible;visibility:visible;opacity:1;isolation:auto;mix-blend-mode:normal;color-interpolation:sRGB;color-interpolation-filters:linearRGB;solid-color:#000000;solid-opacity:1;vector-effect:none;fill:#ffffff;fill-opacity:1;fill-rule:nonzero;stroke:none;stroke-width:31.47907639;stroke-linecap:round;stroke-linejoin:round;stroke-miterlimit:4;stroke-dasharray:none;stroke-dashoffset:0;stroke-opacity:1;color-rendering:auto;image-rendering:auto;shape-rendering:auto;text-rendering:auto;enable-background:accumulate"
     d="m 110.43933,38.667024 a 15.741112,15.741112 0 0 0 -7.16157,1.55536 C 93.0074,44.990756 87.195156,48.048053 82.032841,52.530064 76.870508,57.012058 74.307477,60.64318 66.950477,68.084738 l 0.0767,-0.07737 c -79.907002,79.713982 -79.91323,209.540152 -0.01918,289.262272 38.298893,38.48045 90.347823,59.94253 144.633233,59.94253 a 15.741112,15.741112 0 1 0 0,-31.47888 c -46.00599,0 -89.96577,-18.1509 -122.34013,-50.68877 a 15.741112,15.741112 0 0 0 -0.04144,-0.0414 c -67.862195,-67.69828 -67.862195,-177.01127 0,-244.709558 a 15.741112,15.741112 0 0 0 0.0767,-0.07737 c 8.170157,-8.264069 11.494,-12.318584 13.33391,-13.916025 1.83991,-1.597441 4.14508,-3.013624 13.86373,-7.525851 a 15.741112,15.741112 0 0 0 -6.09458,-30.107211 z"
     id="path855" />
  <polyline
     class="fil1 str0"
     points="4015 4022 4125 3613 3716 3503"
     id="polyline857"
     style="fill:#ffffff;fill-opacity:1;stroke:none;stroke-width:176.38000488;stroke-linecap:round;stroke-linejoin:round"
     transform="matrix(0.17847304,0,0,0.17847304,-604.33752,-603.33049)" />
  <path
     style="color:#000000;font-style:normal;font-variant:normal;font-weight:normal;font-stretch:normal;font-size:medium;line-height:normal;font-family:sans-serif;font-variant-ligatures:normal;font-variant-position:normal;font-variant-caps:normal;font-variant-numeric:normal;font-variant-alternates:normal;font-feature-settings:normal;text-indent:0;text-align:start;text-decoration:none;text-decoration-line:none;text-decoration-style:solid;text-decoration-color:#000000;letter-spacing:normal;word-spacing:normal;text-transform:none;writing-mode:lr-tb;direction:ltr;text-orientation:mixed;dominant-baseline:auto;baseline-shift:baseline;text-anchor:start;white-space:normal;shape-padding:0;clip-rule:nonzero;display:inline;overflow:visible;visibility:visible;opacity:1;isolation:auto;mix-blend-mode:normal;color-interpolation:sRGB;color-interpolation-filters:linearRGB;solid-color:#000000;solid-opacity:1;vector-effect:none;fill:#ffffff;fill-opacity:1;fill-rule:nonzero;stroke:none;stroke-width:31.47907639;stroke-linecap:round;stroke-linejoin:round;stroke-miterlimit:4;stroke-dasharray:none;stroke-dashoffset:0;stroke-opacity:1;color-rendering:auto;image-rendering:auto;shape-rendering:auto;text-rendering:auto;enable-background:accumulate"
     d="m 211.64121,6.1211277 a 15.741112,15.741112 0 1 0 0,31.4789013 c 45.95927,0 89.96399,18.309011 122.55451,50.725373 67.69113,67.878348 67.67609,177.222728 -0.008,244.906498 l 0.0638,-0.0634 c -8.50405,8.40741 -12.39966,13.63026 -14.77074,16.0033 -2.37106,2.37308 -4.15956,3.80512 -13.40848,8.09928 a 15.741112,15.741112 0 1 0 13.25651,28.55184 c 10.74006,-4.98644 17.40707,-9.38343 22.42067,-14.40124 5.0136,-5.0178 7.43182,-8.74762 14.6334,-15.86738 a 15.741112,15.741112 0 0 0 0.0638,-0.0634 c 79.72776,-79.72776 79.71954,-209.52091 0.0136,-289.419844 a 15.741112,15.741112 0 0 0 -0.0414,-0.04148 C 317.97916,27.78291 265.97422,6.1211012 211.64103,6.1211012 Z"
     id="path859" />
  <polyline
     class="fil1 str0"
     points="5129 5112 5019 5521 5428 5630"
     id="polyline861"
     style="fill:#ffffff;fill-opacity:1;stroke:none;stroke-width:176.38000488;stroke-linecap:round;stroke-linejoin:round"
     transform="matrix(0.17847304,0,0,0.17847304,-604.33752,-603.33049)" />
</svg>
